<svg width="512" height="512" viewBox="0 0 512 512" xmlns="http://www.w3.org/2000/svg" role="img" aria-labelledby="title desc">
  <title id="title">Agartha favicon</title>
  <desc id="desc">Favicon Agartha, symbole de cartographie du risque sur fond sombre.</desc>
  
    <defs>
      <linearGradient id="agarthaViolet" x1="0" y1="0" x2="1" y2="1">
        <stop offset="0%" stop-color="#9B7CFF"/>
        <stop offset="100%" stop-color="#7C5CFF"/>
      </linearGradient>
      <linearGradient id="agarthaText" x1="0" y1="0" x2="1" y2="1">
        <stop offset="0%" stop-color="#FFFFFF"/>
        <stop offset="56%" stop-color="#F2F2F7"/>
        <stop offset="100%" stop-color="#B9B3D6"/>
      </linearGradient>
      <filter id="softGlow" x="-50%" y="-50%" width="200%" height="200%">
        <feGaussianBlur stdDeviation="2.8" result="blur"/>
        <feColorMatrix in="blur" type="matrix" values="0.49 0 0 0 0  0.36 0 0 0 0  1 0 0 0 0  0 0 0 0.42 0" result="glow"/>
        <feMerge><feMergeNode in="glow"/><feMergeNode in="SourceGraphic"/></feMerge>
      </filter>
    </defs>
    
  <defs>
    <radialGradient id="bgGlow" cx="50%" cy="47%" r="72%">
      <stop offset="0%" stop-color="#171020"/>
      <stop offset="55%" stop-color="#0B0B0F"/>
      <stop offset="100%" stop-color="#050509"/>
    </radialGradient>
  </defs>
  <rect x="32" y="32" width="448" height="448" rx="96" fill="url(#bgGlow)"/>
  <rect x="34" y="34" width="444" height="444" rx="94" fill="none" stroke="#2A2238" stroke-width="4"/>
  
    <g transform="translate(96 96) scale(2.5)" fill="none" stroke-linecap="round" stroke-linejoin="round">
      <path d="M64 16 L104 39 L104 86 L64 110 L24 86 L24 39 Z" stroke="#F2F2F7" stroke-width="6" opacity="0.96"/>
      <path d="M24 86 L64 63 L104 86" stroke="url(#agarthaViolet)" stroke-width="6" filter="url(#softGlow)"/>
      <circle cx="64" cy="16" r="9" fill="#F2F2F7" stroke="none"/>
      <circle cx="104" cy="39" r="9" fill="#F2F2F7" stroke="none"/>
      <circle cx="104" cy="86" r="9" fill="#F2F2F7" stroke="none" opacity="0.92"/>
      <circle cx="64" cy="110" r="9" fill="#F2F2F7" stroke="none"/>
      <circle cx="24" cy="86" r="11" fill="url(#agarthaViolet)" stroke="none" filter="url(#softGlow)"/>
      <circle cx="24" cy="39" r="9" fill="#F2F2F7" stroke="none"/>
      <path d="M64 45 L78 53 L78 71 L64 80 L50 71 L50 53 Z" fill="url(#agarthaViolet)" stroke="none" filter="url(#softGlow)"/>
    </g>
    
</svg>
