<svg width="1440" height="360" viewBox="0 0 1440 360" xmlns="http://www.w3.org/2000/svg" role="img" aria-labelledby="title desc">
  <title id="title">Agartha — Sécurité applicative &amp; gouvernance cyber</title>
  <desc id="desc">Logo titre Agartha avec baseline complète.</desc>
  
    <defs>
      <linearGradient id="agarthaViolet" x1="0" y1="0" x2="1" y2="1">
        <stop offset="0%" stop-color="#9B7CFF"/>
        <stop offset="100%" stop-color="#7C5CFF"/>
      </linearGradient>
      <linearGradient id="agarthaText" x1="0" y1="0" x2="1" y2="1">
        <stop offset="0%" stop-color="#FFFFFF"/>
        <stop offset="56%" stop-color="#F2F2F7"/>
        <stop offset="100%" stop-color="#B9B3D6"/>
      </linearGradient>
      <filter id="softGlow" x="-50%" y="-50%" width="200%" height="200%">
        <feGaussianBlur stdDeviation="2.8" result="blur"/>
        <feColorMatrix in="blur" type="matrix" values="0.49 0 0 0 0  0.36 0 0 0 0  1 0 0 0 0  0 0 0 0.42 0" result="glow"/>
        <feMerge><feMergeNode in="glow"/><feMergeNode in="SourceGraphic"/></feMerge>
      </filter>
    </defs>
  
    <g transform="translate(82 88) scale(1.12)" fill="none" stroke-linecap="round" stroke-linejoin="round">
      <path d="M64 16 L104 39 L104 86 L64 110 L24 86 L24 39 Z" stroke="#F2F2F7" stroke-width="5.2" opacity="0.96"/>
      <path d="M24 86 L64 63 L104 86" stroke="url(#agarthaViolet)" stroke-width="5.2" filter="url(#softGlow)"/>
      <circle cx="64" cy="16" r="9" fill="#F2F2F7" stroke="none"/>
      <circle cx="104" cy="39" r="9" fill="#F2F2F7" stroke="none"/>
      <circle cx="104" cy="86" r="9" fill="#F2F2F7" stroke="none" opacity="0.92"/>
      <circle cx="64" cy="110" r="9" fill="#F2F2F7" stroke="none"/>
      <circle cx="24" cy="86" r="11" fill="url(#agarthaViolet)" stroke="none" filter="url(#softGlow)"/>
      <circle cx="24" cy="39" r="9" fill="#F2F2F7" stroke="none"/>
      <path d="M64 45 L78 53 L78 71 L64 80 L50 71 L50 53 Z" fill="url(#agarthaViolet)" stroke="none" filter="url(#softGlow)"/>
    </g>
  <text x="266" y="172" font-family="Space Grotesk, Sora, Outfit, Inter, Arial, sans-serif" font-weight="600" font-size="86" letter-spacing="16" fill="url(#agarthaText)">AGARTHA</text>
  <text x="270" y="232" font-family="Geist Mono, IBM Plex Mono, ui-monospace, SFMono-Regular, Menlo, Consolas, monospace" font-size="21" letter-spacing="6" fill="#B9B3D6">SÉCURITÉ APPLICATIVE &amp; GOUVERNANCE CYBER</text>
  <line x1="270" y1="256" x2="390" y2="256" stroke="url(#agarthaViolet)" stroke-width="4" stroke-linecap="round"/>
</svg>
